<!DOCTYPE svg PUBLIC "-//W3C//DTD SVG 20010904//EN" "http://www.w3.org/TR/2001/REC-SVG-20010904/DTD/svg10.dtd">
<svg version="1.0" xmlns="http://www.w3.org/2000/svg" width="1136px" height="852px" viewBox="0 0 11360 8520" preserveAspectRatio="xMidYMid meet">
<g id="layer101" fill="#ffffff" stroke="none">
 <path d="M370 8188 c0 -59 2 -68 18 -68 13 0 24 13 35 40 35 90 171 80 142 -10 -3 -11 -37 -38 -75 -60 -112 -65 -142 -119 -105 -189 20 -39 57 -51 153 -49 l82 2 0 68 c0 81 -20 93 -47 27 -11 -28 -26 -45 -46 -54 -59 -25 -110 26 -68 68 11 11 51 39 88 61 86 52 112 96 94 157 -19 64 -55 79 -173 77 l-98 -2 0 -68z"/>
 <path d="M1873 8235 c-61 -37 -86 -95 -81 -189 4 -88 35 -144 99 -176 34 -18 55 -21 137 -18 53 1 100 7 104 13 4 5 8 36 8 68 0 70 -19 77 -49 18 -47 -92 -157 -86 -196 11 -22 55 -21 147 1 194 24 50 89 80 138 64 18 -6 44 -22 56 -35 23 -24 60 -34 60 -16 0 18 -41 59 -74 75 -54 26 -152 21 -203 -9z"/>
 <path d="M4290 8188 c0 -59 2 -68 18 -68 13 0 24 13 35 40 35 90 171 80 142 -10 -3 -11 -37 -38 -75 -60 -112 -65 -142 -119 -105 -189 20 -39 57 -51 153 -49 l82 2 0 68 c0 81 -20 93 -47 27 -11 -28 -26 -45 -46 -54 -59 -25 -110 26 -68 68 11 11 51 39 88 61 86 52 112 96 94 157 -19 64 -55 79 -173 77 l-98 -2 0 -68z"/>
 <path d="M6750 8188 c0 -59 2 -68 18 -68 13 0 24 13 35 40 35 90 171 80 142 -10 -3 -11 -37 -38 -75 -60 -112 -65 -142 -119 -105 -189 20 -39 57 -51 153 -49 l82 2 0 68 c0 81 -20 93 -47 27 -11 -28 -26 -45 -46 -54 -59 -25 -110 26 -68 68 11 11 51 39 88 61 86 52 112 96 94 157 -19 64 -55 79 -173 77 l-98 -2 0 -68z"/>
 <path d="M820 8242 c0 -4 10 -12 23 -17 21 -10 22 -14 22 -170 0 -156 -1 -160 -22 -170 -44 -19 -22 -25 90 -25 94 0 117 3 145 20 51 31 65 85 37 145 -20 40 -51 55 -116 55 l-50 0 3 68 c3 58 6 68 26 77 41 18 23 25 -68 25 -49 0 -90 -3 -90 -8z m195 -217 c27 -26 31 -51 14 -88 -12 -26 -54 -51 -70 -42 -14 9 -11 142 4 148 22 9 28 7 52 -18z"/>
 <path d="M1280 8242 c0 -4 10 -12 23 -17 21 -10 22 -14 22 -170 0 -156 -1 -160 -22 -170 -13 -5 -23 -13 -23 -17 0 -5 69 -8 154 -8 168 0 166 -1 166 61 0 22 -5 29 -20 29 -11 0 -20 -4 -20 -10 0 -5 -9 -19 -20 -30 -15 -15 -33 -20 -75 -20 l-55 0 0 70 0 70 40 0 c31 0 47 -6 64 -25 37 -40 46 -32 46 40 0 58 -2 65 -20 65 -11 0 -20 -7 -20 -15 0 -20 -32 -35 -75 -35 l-36 0 3 78 3 77 54 3 c51 3 55 1 92 -37 37 -40 77 -56 66 -27 -3 8 -11 32 -18 55 l-12 41 -159 0 c-87 0 -158 -3 -158 -8z"/>
 <path d="M2310 8241 c0 -5 11 -12 25 -15 l25 -6 0 -165 0 -165 -25 -6 c-53 -13 -21 -24 70 -24 57 0 95 4 95 10 0 6 -6 10 -14 10 -8 0 -22 7 -30 16 -13 13 -16 42 -16 166 l0 150 30 11 c52 20 33 27 -65 27 -52 0 -95 -4 -95 -9z"/>
 <path d="M2640 8241 c0 -5 10 -16 23 -24 16 -10 46 -71 97 -191 63 -151 76 -177 93 -174 15 2 35 39 86 163 80 192 85 202 111 210 45 14 15 25 -70 25 -85 0 -115 -11 -69 -25 11 -4 19 -12 16 -18 -2 -7 -10 -29 -18 -49 -13 -38 -13 -38 -71 -38 -53 0 -59 2 -71 28 -28 53 -29 70 -7 77 41 13 18 25 -50 25 -38 0 -70 -4 -70 -9z m237 -163 c-3 -7 -13 -33 -22 -56 l-18 -44 -14 34 c-37 84 -37 78 13 78 33 0 45 -4 41 -12z"/>
 <path d="M3210 8242 c0 -4 10 -12 23 -17 21 -10 22 -14 22 -170 0 -156 -1 -160 -22 -170 -43 -18 -23 -25 72 -25 98 0 117 7 65 27 l-30 11 0 155 c0 169 -1 167 59 167 48 0 91 -21 107 -51 15 -30 62 -43 51 -15 -3 8 -11 32 -18 55 l-12 41 -159 0 c-87 0 -158 -3 -158 -8z"/>
 <path d="M4820 8242 c0 -4 10 -12 23 -17 21 -10 22 -15 25 -172 l2 -163 -25 0 c-28 0 -65 32 -65 55 0 8 -9 15 -20 15 -22 0 -25 -15 -14 -69 l7 -31 163 0 164 0 0 50 c0 38 -4 50 -15 50 -8 0 -15 -5 -15 -10 0 -21 -49 -60 -75 -60 l-25 0 0 154 c0 127 3 157 16 170 8 9 22 16 30 16 8 0 14 5 14 10 0 6 -38 10 -95 10 -52 0 -95 -3 -95 -8z"/>
 <path d="M5240 8242 c0 -4 10 -12 23 -17 21 -10 22 -14 22 -170 0 -156 -1 -160 -22 -170 -13 -5 -23 -13 -23 -17 0 -5 69 -8 154 -8 168 0 166 -1 166 61 0 22 -5 29 -20 29 -11 0 -20 -4 -20 -10 0 -5 -9 -19 -20 -30 -15 -15 -33 -20 -75 -20 l-55 0 0 70 0 70 40 0 c31 0 47 -6 64 -25 37 -40 46 -32 46 40 0 58 -2 65 -20 65 -11 0 -20 -7 -20 -15 0 -20 -32 -35 -75 -35 l-36 0 3 78 3 77 54 3 c51 3 55 1 92 -37 37 -40 77 -56 66 -27 -3 8 -11 32 -18 55 l-12 41 -159 0 c-87 0 -158 -3 -158 -8z"/>
 <path d="M5730 8242 c0 -4 10 -12 23 -17 21 -10 22 -14 22 -170 0 -156 -1 -160 -22 -170 -13 -5 -23 -13 -23 -17 0 -5 69 -8 154 -8 168 0 166 -1 166 61 0 22 -5 29 -20 29 -11 0 -20 -4 -20 -10 0 -5 -9 -19 -20 -30 -15 -15 -33 -20 -75 -20 l-55 0 0 70 0 70 40 0 c31 0 47 -6 64 -25 37 -40 46 -32 46 40 0 58 -2 65 -20 65 -11 0 -20 -7 -20 -15 0 -20 -32 -35 -75 -35 l-36 0 3 78 3 77 54 3 c51 3 55 1 92 -37 37 -40 77 -56 66 -27 -3 8 -11 32 -18 55 l-12 41 -159 0 c-87 0 -158 -3 -158 -8z"/>
 <path d="M6230 8242 c0 -4 10 -12 23 -17 21 -10 22 -14 22 -170 0 -156 -1 -160 -22 -170 -43 -18 -23 -25 72 -25 98 0 117 7 65 27 l-30 11 0 155 c0 169 -1 167 59 167 48 0 91 -21 107 -51 15 -30 62 -43 51 -15 -3 8 -11 32 -18 55 l-12 41 -159 0 c-87 0 -158 -3 -158 -8z"/>
 <path d="M7780 8242 c0 -4 10 -12 23 -17 21 -10 22 -14 22 -170 0 -156 -1 -160 -22 -170 -43 -18 -23 -25 72 -25 98 0 117 7 65 27 l-30 11 0 155 c0 169 -1 167 59 167 48 0 91 -21 107 -51 15 -30 62 -43 51 -15 -3 8 -11 32 -18 55 l-12 41 -159 0 c-87 0 -158 -3 -158 -8z"/>
 <path d="M8280 8241 c0 -5 11 -12 25 -15 l25 -6 0 -165 0 -165 -25 -6 c-53 -13 -21 -24 70 -24 57 0 95 4 95 10 0 6 -6 10 -14 10 -8 0 -22 7 -30 16 -13 13 -16 42 -16 166 l0 150 30 11 c52 20 33 27 -65 27 -52 0 -95 -4 -95 -9z"/>
 <path d="M8610 8240 c0 -5 8 -10 18 -10 37 0 42 -19 42 -171 0 -121 -3 -150 -16 -163 -8 -9 -22 -16 -30 -16 -8 0 -14 -5 -14 -10 0 -7 26 -10 70 -8 l70 3 56 120 c30 66 58 123 62 127 4 4 33 -51 66 -123 l58 -129 69 0 c39 0 69 4 69 10 0 6 -6 10 -14 10 -8 0 -22 7 -30 16 -23 23 -23 295 0 318 8 9 22 16 30 16 8 0 14 5 14 10 0 6 -38 10 -95 10 -57 0 -95 -4 -95 -10 0 -5 6 -10 14 -10 29 0 37 -27 34 -126 l-3 -99 -55 122 c-41 91 -60 123 -73 123 -13 0 -31 -28 -65 -102 -26 -57 -53 -114 -59 -128 -10 -21 -12 -5 -10 85 2 104 3 111 25 120 40 18 23 25 -58 25 -47 0 -80 -4 -80 -10z"/>
 <path d="M9270 8241 c0 -5 11 -12 25 -15 l25 -6 0 -165 0 -165 -25 -6 c-53 -13 -21 -24 70 -24 57 0 95 4 95 10 0 6 -6 10 -14 10 -8 0 -22 7 -30 16 -13 13 -16 42 -16 166 l0 150 30 11 c52 20 33 27 -65 27 -52 0 -95 -4 -95 -9z"/>
 <path d="M9690 8242 c0 -4 10 -12 23 -17 21 -10 22 -15 25 -172 l2 -163 -25 0 c-28 0 -65 32 -65 55 0 8 -9 15 -20 15 -22 0 -25 -15 -14 -69 l7 -31 163 0 164 0 0 50 c0 38 -4 50 -15 50 -8 0 -15 -5 -15 -10 0 -21 -49 -60 -75 -60 l-25 0 0 154 c0 127 3 157 16 170 8 9 22 16 30 16 8 0 14 5 14 10 0 6 -38 10 -95 10 -52 0 -95 -3 -95 -8z"/>
 <path d="M10110 8242 c0 -4 10 -12 23 -17 21 -10 22 -14 22 -170 0 -156 -1 -160 -22 -170 -13 -5 -23 -13 -23 -17 0 -5 69 -8 154 -8 168 0 166 -1 166 61 0 22 -5 29 -20 29 -11 0 -20 -4 -20 -10 0 -5 -9 -19 -20 -30 -15 -15 -33 -20 -75 -20 l-55 0 0 70 0 70 40 0 c31 0 47 -6 64 -25 37 -40 46 -32 46 40 0 58 -2 65 -20 65 -11 0 -20 -7 -20 -15 0 -20 -32 -35 -75 -35 l-36 0 3 78 3 77 54 3 c51 3 55 1 92 -37 37 -40 77 -56 66 -27 -3 8 -11 32 -18 55 l-12 41 -159 0 c-87 0 -158 -3 -158 -8z"/>
 <path d="M10610 8242 c0 -4 10 -12 23 -17 21 -10 22 -14 22 -170 0 -156 -1 -160 -22 -170 -13 -5 -23 -13 -23 -17 0 -12 239 -10 280 2 41 11 94 61 109 103 16 41 13 122 -4 164 -38 91 -87 112 -257 113 -71 0 -128 -3 -128 -8z m228 -42 c111 -50 109 -242 -3 -291 -28 -12 -54 -17 -70 -13 l-25 6 0 153 c0 138 2 154 18 158 30 8 36 7 80 -13z"/>
 <path d="M180 7620 c0 -20 7 -20 5490 -20 5483 0 5490 0 5490 20 0 20 -7 20 -5490 20 -5483 0 -5490 0 -5490 -20z"/>
 <path d="M8084 7395 c-287 -50 -502 -209 -618 -456 -60 -125 -71 -184 -71 -364 0 -140 3 -170 23 -235 103 -331 356 -563 687 -631 176 -37 340 -22 564 51 118 39 131 41 157 29 20 -10 33 -27 43 -57 13 -42 14 -43 55 -40 l41 3 0 295 0 295 -42 3 c-42 3 -42 3 -53 -40 -34 -127 -129 -263 -228 -327 -246 -158 -572 -64 -697 201 -95 199 -112 486 -44 745 60 229 183 353 380 384 194 30 367 -34 538 -199 47 -45 93 -81 101 -79 12 2 16 20 18 81 3 90 2 92 -104 176 -84 68 -197 126 -290 151 -104 28 -342 35 -460 14z"/>
 <path d="M354 7366 c-3 -8 -4 -25 -2 -38 3 -21 10 -24 68 -30 84 -8 115 -21 137 -55 17 -25 18 -68 18 -693 0 -522 -3 -670 -13 -687 -19 -33 -66 -54 -141 -61 l-66 -7 0 -35 0 -35 440 0 440 0 0 35 0 35 -66 7 c-75 7 -122 28 -141 61 -10 16 -14 98 -16 305 l-3 282 266 0 266 0 -3 -289 c-3 -272 -4 -290 -23 -311 -30 -34 -52 -42 -129 -49 l-71 -6 0 -35 0 -35 440 0 440 0 0 35 0 35 -66 7 c-83 8 -122 28 -140 70 -20 47 -21 1307 -1 1354 18 42 61 65 140 72 l67 7 0 35 0 35 -440 0 -440 0 0 -35 0 -35 73 -6 c41 -4 84 -14 98 -24 50 -33 54 -60 54 -380 l0 -295 -266 0 -265 0 3 308 c2 226 6 313 16 329 19 33 66 54 141 61 l66 7 0 35 0 35 -438 3 c-373 2 -438 0 -443 -12z"/>
 <path d="M2327 7373 c-4 -3 -7 -21 -7 -40 0 -25 4 -33 19 -33 10 0 33 -5 51 -11 59 -21 60 -32 60 -489 0 -466 -1 -471 -67 -489 -21 -6 -44 -11 -51 -11 -9 0 -12 -12 -10 -37 l3 -38 250 0 250 0 5 510 c4 281 7 511 8 512 28 30 53 43 89 49 44 6 44 7 41 43 l-3 36 -316 3 c-173 1 -318 -1 -322 -5z"/>
 <path d="M4284 7366 c-3 -8 -4 -25 -2 -38 3 -21 10 -24 68 -30 84 -8 115 -21 137 -55 17 -25 18 -71 21 -700 l3 -673 -70 0 c-90 0 -165 16 -218 46 -56 32 -116 123 -138 211 -9 37 -19 74 -21 81 -3 9 -17 12 -41 10 l-38 -3 0 -245 0 -245 745 0 745 0 0 245 0 245 -40 3 -40 3 -27 -90 c-35 -111 -79 -176 -146 -217 -56 -34 -106 -44 -214 -44 l-69 0 3 673 c2 523 6 677 16 694 19 33 66 54 141 61 l66 7 0 35 0 35 -438 3 c-373 2 -438 0 -443 -12z"/>
 <path d="M5644 7366 c-3 -8 -4 -25 -2 -38 3 -21 10 -24 69 -30 83 -8 122 -28 140 -70 21 -50 21 -1323 -1 -1362 -20 -38 -61 -57 -139 -64 l-66 -7 0 -35 0 -35 695 0 695 0 0 260 0 260 -41 3 -41 3 -16 -65 c-27 -108 -55 -162 -113 -215 -81 -75 -140 -91 -351 -98 l-173 -6 0 308 0 308 51 -7 c137 -18 208 -107 240 -299 l13 -78 41 3 40 3 0 435 0 435 -40 3 -41 3 -12 -70 c-25 -145 -82 -249 -155 -281 -23 -10 -64 -21 -90 -25 l-48 -6 3 300 3 301 28 27 28 28 142 0 c153 -1 214 -13 311 -62 102 -52 206 -191 247 -330 11 -39 15 -43 44 -43 18 0 37 6 42 13 8 9 -27 296 -67 545 0 1 -322 2 -715 2 -611 0 -716 -2 -721 -14z"/>
 <path d="M9174 7366 c-3 -8 -4 -25 -2 -38 3 -21 10 -24 68 -30 84 -8 115 -21 137 -55 17 -25 18 -68 18 -693 0 -522 -3 -670 -13 -687 -19 -33 -66 -54 -141 -61 l-66 -7 0 -35 0 -35 440 0 440 0 0 35 0 35 -66 7 c-75 7 -122 28 -141 61 -10 16 -14 98 -16 305 l-3 282 266 0 266 0 -3 -289 c-3 -272 -4 -290 -23 -311 -30 -34 -52 -42 -129 -49 l-71 -6 0 -35 0 -35 440 0 440 0 0 35 0 35 -66 7 c-83 8 -122 28 -140 70 -20 47 -21 1307 -1 1354 18 42 61 65 140 72 l67 7 0 35 0 35 -440 0 -440 0 0 -35 0 -35 73 -6 c41 -4 84 -14 98 -24 50 -33 54 -60 54 -380 l0 -295 -266 0 -265 0 3 308 c2 226 6 313 16 329 19 33 66 54 141 61 l66 7 0 35 0 35 -438 3 c-373 2 -438 0 -443 -12z"/>
 <path d="M3074 6927 c-2 -7 -3 -67 -2 -133 l3 -119 365 0 365 0 0 130 0 130 -363 3 c-293 2 -364 0 -368 -11z"/>
 <path d="M2549 6081 c-50 -28 -97 -84 -105 -126 -13 -69 0 -142 32 -183 94 -118 281 -105 348 23 29 54 29 146 0 200 -11 22 -40 53 -63 70 -55 39 -156 46 -212 16z"/>
 <path d="M4553 4608 l-1093 -631 0 -1277 0 -1277 1094 -632 c601 -347 1099 -631 1106 -631 7 0 505 284 1106 631 l1094 632 0 1277 0 1277 -1094 632 c-601 347 -1099 631 -1107 631 -8 0 -506 -285 -1106 -632z m2110 -183 l987 -570 0 -1155 0 -1155 -987 -570 c-543 -314 -995 -570 -1003 -570 -8 0 -460 256 -1003 570 l-987 570 0 1155 0 1155 988 572 c543 314 994 571 1003 570 8 -1 459 -258 1002 -572z"/>
 <path d="M5540 4870 c0 -6 -8 -13 -17 -17 -10 -3 -29 -14 -43 -23 -14 -10 -42 -27 -62 -39 -21 -11 -54 -30 -73 -41 -19 -11 -52 -29 -72 -41 -21 -12 -42 -25 -48 -29 -5 -4 -27 -17 -47 -29 -21 -12 -54 -30 -73 -41 -19 -11 -52 -29 -72 -41 -21 -12 -42 -25 -48 -29 -5 -4 -27 -17 -47 -29 -21 -12 -55 -31 -75 -43 -21 -12 -50 -28 -65 -35 l-28 -14 0 -604 0 -603 -37 -5 c-21 -3 -60 -11 -88 -16 -27 -6 -66 -13 -85 -16 -19 -3 -51 -10 -70 -15 -19 -5 -50 -11 -67 -14 l-33 -6 0 525 c0 499 -1 525 -18 525 -10 0 -22 -4 -27 -9 -6 -5 -27 -19 -47 -30 -21 -12 -54 -30 -73 -41 -19 -11 -51 -29 -70 -40 -19 -11 -51 -29 -70 -40 -19 -11 -51 -29 -70 -40 -19 -11 -51 -29 -70 -40 -19 -11 -52 -30 -72 -41 -21 -12 -49 -29 -63 -39 -14 -9 -40 -23 -57 -31 l-33 -14 0 -1125 0 -1125 33 -14 c17 -8 43 -22 57 -31 14 -10 42 -27 63 -39 20 -11 53 -30 72 -41 19 -11 51 -29 70 -40 19 -11 51 -29 70 -40 19 -11 51 -29 70 -40 19 -11 51 -29 70 -40 19 -11 52 -29 73 -41 20 -11 41 -25 46 -30 6 -5 18 -9 28 -9 17 0 18 25 18 504 l0 504 48 -5 c26 -2 58 -6 72 -9 36 -8 146 -24 208 -30 l52 -6 0 -593 0 -594 28 -14 c15 -7 44 -23 65 -35 20 -12 54 -31 75 -43 20 -12 42 -25 47 -29 6 -4 27 -17 48 -29 20 -12 53 -30 72 -41 19 -11 52 -29 73 -41 20 -12 42 -25 47 -29 6 -4 27 -17 48 -29 20 -12 53 -30 72 -41 19 -11 52 -30 73 -41 20 -12 49 -30 64 -40 14 -11 31 -19 37 -19 7 0 14 -7 17 -15 4 -9 19 -15 35 -15 l29 0 0 2180 0 2180 -30 0 c-16 0 -30 -5 -30 -10z"/>
 <path d="M6310 3255 l0 -1265 -39 0 c-22 0 -43 -5 -46 -10 -3 -6 -28 -10 -55 -10 -27 0 -52 -5 -55 -10 -3 -5 -25 -10 -49 -10 -23 0 -46 -4 -51 -9 -6 -5 -30 -11 -55 -14 -25 -3 -70 -11 -100 -17 -30 -6 -77 -14 -105 -18 l-50 -7 -3 -683 -2 -682 29 0 c17 0 34 6 38 13 4 6 22 19 38 27 17 8 32 17 35 20 3 3 19 12 35 20 17 8 32 17 35 20 3 3 23 14 45 26 52 27 89 48 95 54 3 3 23 14 45 26 22 11 57 31 78 42 20 12 53 31 72 42 19 11 51 29 70 40 19 11 51 29 70 40 19 11 52 30 73 42 20 11 60 33 87 48 66 35 99 54 105 60 3 3 23 14 45 26 52 27 89 48 95 54 3 3 23 14 45 26 22 11 57 31 78 42 20 12 53 31 72 42 19 11 52 30 73 42 20 11 55 31 77 42 22 12 42 23 45 26 3 3 19 12 35 20 17 8 32 17 35 20 3 3 23 14 45 26 55 28 89 48 95 55 3 3 21 13 40 22 19 10 58 31 85 48 28 16 58 32 68 36 16 5 17 31 17 364 l0 359 -43 0 c-24 0 -47 -4 -52 -9 -6 -5 -29 -12 -52 -15 -24 -3 -62 -9 -85 -12 -24 -3 -47 -10 -53 -15 -5 -5 -28 -9 -51 -9 -24 0 -46 -4 -49 -10 -3 -5 -24 -10 -45 -10 -21 0 -42 -4 -45 -10 -3 -5 -26 -10 -51 -10 l-44 0 0 980 c0 937 -1 980 -18 980 -10 0 -22 4 -28 9 -5 5 -26 19 -46 30 -21 12 -54 30 -73 41 -19 11 -51 29 -70 40 -19 11 -51 29 -70 40 -19 11 -51 29 -70 40 -19 11 -51 29 -70 40 -19 11 -52 30 -72 42 -21 11 -55 31 -77 42 -21 12 -41 27 -43 34 -3 7 -22 12 -44 12 l-39 0 0 -1265z"/>
 </g>

</svg>